# xmcd
#
# Track frame offsets:
#	183
#	20560
#	33173
#	45438
#	57100
#	67853
#	79485
#	91995
#	104953
#	118338
#	131153
#	144595
#	157298
#	170748
#
# Disc length: 2461 seconds
#
# Revision: 1
# Processed by: cddbd v1.4b42PL1 Copyright (c) Steve Scherf et al.
# Submitted via: audiograbber 1.80
#
DISCID=cd099b0e
DTITLE=Howlin' Wolf - Wang Dang Doodle
DYEAR=1900
DGENRE=
TTITLE0=Wang Dang Doodle
TTITLE1=Highway 49
TTITLE2=Louise
TTITLE3=My Country Sugar Mama
TTITLE4=Built For Comfort
TTITLE5=Poor Boy
TTITLE6=Nature
TTITLE7=Ain't Superstitious
TTITLE8=My Last Affair
TTITLE9=Walk To Camp Hall
TTITLE10=My Baby Walked Off
TTITLE11=Back Door Man
TTITLE12=Everybody's In The Mood
TTITLE13=Smokestack Lightnin'
EXTD=
EXTT0=
EXTT1=
EXTT2=
EXTT3=
EXTT4=
EXTT5=
EXTT6=
EXTT7=
EXTT8=
EXTT9=
EXTT10=
EXTT11=
EXTT12=
EXTT13=
PLAYORDER=
